<svg xmlns="http://www.w3.org/2000/svg" viewBox="0 0 512 512" width="30" height="30" fill="#fff"><path d="M502.857 64H9.143A9.142 9.142 0 0 0 0 73.143v365.714A9.142 9.142 0 0 0 9.143 448h493.714a9.143 9.143 0 0 0 9.143-9.143V73.143A9.142 9.142 0 0 0 502.857 64zM162.112 289.664l-128 137.143a9.143 9.143 0 1 1-13.367-12.471l128-137.143a9.143 9.143 0 1 1 13.367 12.471zm328.695 137.591c-3.692 3.442-9.475 3.242-12.919-.448l-128-137.143a9.143 9.143 0 1 1 13.367-12.471l128 137.143c3.442 3.692 3.242 9.475-.448 12.919zm-.357-328.823L279.525 275.611A36.49 36.49 0 0 1 256 284.196a36.491 36.491 0 0 1-23.525-8.585L21.55 98.432a9.144 9.144 0 1 1 11.758-14.007l210.926 177.189a18.285 18.285 0 0 0 23.534 0L478.693 84.425a9.143 9.143 0 0 1 12.882 1.125 9.143 9.143 0 0 1-1.125 12.882z"/></svg>